<svg xmlns="http://www.w3.org/2000/svg" width="11.711" height="18.611" viewBox="0 0 11.711 18.611">
  <g id="Folder_Download" data-name="Folder Download" transform="translate(-23.5 -22.842)">
    <path id="패스_6" data-name="패스 6" d="M28.65,38.716a1.06,1.06,0,0,0,1.5,0L34.9,33.96a.689.689,0,0,0-.974-.974l-3.841,3.842v-13.3a.689.689,0,0,0-1.378,0v13.3l-3.751-3.751a.689.689,0,0,0-.974.974Z" transform="translate(-0.088 0)" fill="#d4d4d4"/>
    <path id="패스_7" data-name="패스 7" d="M34.522,47.857H24.189a.689.689,0,1,0,0,1.378H34.522a.689.689,0,1,0,0-1.378Z" transform="translate(0 -7.783)" fill="#d4d4d4"/>
  </g>
</svg>
