<svg xmlns="http://www.w3.org/2000/svg" width="25.485" height="25.485" viewBox="0 0 25.485 25.485">
  <g id="category_17875249" transform="translate(-1.9 -1.9)">
    <path id="패스_42" data-name="패스 42" d="M10.85,3.264a1.268,1.268,0,0,1,1.264,1.264V10.85a1.268,1.268,0,0,1-1.264,1.264H4.529A1.268,1.268,0,0,1,3.264,10.85V4.529A1.268,1.268,0,0,1,4.529,3.264ZM10.85,2H4.529A2.536,2.536,0,0,0,2,4.529V10.85a2.536,2.536,0,0,0,2.529,2.529H10.85a2.536,2.536,0,0,0,2.529-2.529V4.529A2.536,2.536,0,0,0,10.85,2Z" fill="#d4d4d4" stroke="#d4d4d4" stroke-width="0.2"/>
    <path id="패스_43" data-name="패스 43" d="M21.85,3.264a1.268,1.268,0,0,1,1.264,1.264V10.85a1.268,1.268,0,0,1-1.264,1.264H15.529a1.268,1.268,0,0,1-1.264-1.264V4.529a1.268,1.268,0,0,1,1.264-1.264ZM21.85,2H15.529A2.536,2.536,0,0,0,13,4.529V10.85a2.536,2.536,0,0,0,2.529,2.529H21.85a2.536,2.536,0,0,0,2.529-2.529V4.529A2.536,2.536,0,0,0,21.85,2Z" transform="translate(2.907)" fill="#d4d4d4" stroke="#d4d4d4" stroke-width="0.2"/>
    <path id="패스_44" data-name="패스 44" d="M10.85,14.264a1.268,1.268,0,0,1,1.264,1.264V21.85a1.268,1.268,0,0,1-1.264,1.264H4.529A1.268,1.268,0,0,1,3.264,21.85V15.529a1.268,1.268,0,0,1,1.264-1.264Zm0-1.264H4.529A2.536,2.536,0,0,0,2,15.529V21.85a2.536,2.536,0,0,0,2.529,2.529H10.85a2.536,2.536,0,0,0,2.529-2.529V15.529A2.536,2.536,0,0,0,10.85,13Z" transform="translate(0 2.907)" fill="#d4d4d4" stroke="#d4d4d4" stroke-width="0.2"/>
    <path id="패스_45" data-name="패스 45" d="M21.85,14.264a1.268,1.268,0,0,1,1.264,1.264V21.85a1.268,1.268,0,0,1-1.264,1.264H15.529a1.268,1.268,0,0,1-1.264-1.264V15.529a1.268,1.268,0,0,1,1.264-1.264Zm0-1.264H15.529A2.536,2.536,0,0,0,13,15.529V21.85a2.536,2.536,0,0,0,2.529,2.529H21.85a2.536,2.536,0,0,0,2.529-2.529V15.529A2.536,2.536,0,0,0,21.85,13Z" transform="translate(2.907 2.907)" fill="#d4d4d4" stroke="#d4d4d4" stroke-width="0.2"/>
  </g>
</svg>
